<?xml version="1.0" standalone="no"?>
<!DOCTYPE svg PUBLIC "-//W3C//DTD SVG 20010904//EN"
 "http://www.w3.org/TR/2001/REC-SVG-20010904/DTD/svg10.dtd">
<svg version="1.0" xmlns="http://www.w3.org/2000/svg"
 width="554.000000pt" height="554.000000pt" viewBox="0 0 554.000000 554.000000"
 preserveAspectRatio="xMidYMid meet">
<metadata>
Created by potrace 1.14, written by Peter Selinger 2001-2017
</metadata>
<g transform="translate(0.000000,554.000000) scale(0.100000,-0.100000)"
fill="#000000" stroke="none">
<path d="M3480 4400 l0 -750 -725 0 -725 0 0 745 0 745 -80 0 -80 0 0 -745 0
-745 -742 -2 -741 -3 0 -75 0 -75 739 -5 739 -5 3 -722 2 -723 -735 0 -735 0
0 -80 0 -80 735 0 735 0 0 -750 0 -750 80 0 80 0 0 750 0 750 725 0 725 0 2
-738 3 -737 80 0 80 0 3 738 2 737 750 0 750 0 0 80 0 80 -750 0 -750 0 -2
721 c-2 396 -1 723 1 725 2 2 339 4 748 4 l744 0 -3 78 -3 77 -742 3 -743 2 0
750 0 750 -85 0 -85 0 0 -750z m0 -1635 l0 -725 -725 0 -725 0 0 725 0 725
725 0 725 0 0 -725z"/>
<path d="M2318 3228 c36 -54 162 -257 162 -263 0 -2 34 -56 76 -120 l76 -117
-36 -54 c-20 -29 -36 -57 -36 -61 0 -4 -8 -16 -18 -27 -10 -12 -43 -61 -72
-111 -29 -49 -75 -123 -102 -164 -27 -41 -45 -77 -41 -80 5 -3 61 -5 125 -3
l116 3 40 67 c21 37 63 111 93 164 30 54 57 98 60 98 4 0 9 -8 12 -17 7 -21
100 -196 140 -265 l28 -47 122 -3 c67 -2 125 -2 129 0 4 1 -2 17 -13 35 -11
17 -43 70 -71 117 -27 47 -83 136 -124 198 -104 157 -102 151 -69 209 15 26
51 82 79 123 48 69 112 170 194 308 l31 52 -127 0 -128 0 -57 -97 c-31 -54
-68 -120 -82 -148 -42 -78 -59 -105 -66 -105 -4 0 -51 79 -104 175 l-97 175
-134 0 -135 0 29 -42z"/>
<path d="M1012 4875 c-76 -17 -156 -54 -199 -94 -52 -48 -110 -156 -130 -240
-23 -102 -23 -279 1 -386 46 -201 170 -332 345 -365 129 -24 289 -7 383 41 63
32 147 117 180 183 95 187 97 464 5 639 -37 70 -122 158 -181 187 -98 47 -276
63 -404 35z m301 -210 c107 -70 132 -140 125 -351 -5 -147 -10 -167 -62 -242
-44 -64 -99 -92 -189 -99 -214 -16 -317 123 -304 410 4 95 8 115 36 171 52
106 134 149 269 142 69 -3 90 -8 125 -31z"/>
<path d="M5520 4751 c0 -17 5 -33 10 -36 6 -4 10 8 10 29 0 20 -4 36 -10 36
-5 0 -10 -13 -10 -29z"/>
<path d="M4645 10 c-4 -6 7 -10 24 -10 17 0 31 5 31 10 0 6 -11 10 -24 10 -14
0 -28 -4 -31 -10z"/>
</g>
</svg>
